<?xml version="1.0" encoding="iso-8859-1"?>
<!-- Generator: Adobe Illustrator 21.0.0, SVG Export Plug-In . SVG Version: 6.00 Build 0)  -->
<svg xmlns="http://www.w3.org/2000/svg" xmlns:xlink="http://www.w3.org/1999/xlink" version="1.1" id="Capa_1" x="0px" y="0px" viewBox="0 0 512 512" style="enable-background:new 0 0 512 512;" xml:space="preserve" width="512" height="512">
<g>
	<circle style="fill:#F57C7C;" cx="269.392" cy="77.264" r="77.264"/>
	<path style="fill:#EF6161;" d="M269.392,0c-5.292,0-10.46,0.535-15.453,1.549c35.266,7.159,61.811,38.336,61.811,75.715   c0,37.379-26.544,68.556-61.811,75.715c4.993,1.014,10.16,1.549,15.453,1.549c42.672,0,77.264-34.592,77.264-77.264   S312.064,0,269.392,0z"/>
	<circle style="fill:#F57C7C;" cx="434.736" cy="200.37" r="77.264"/>
	<path style="fill:#EF6161;" d="M434.736,123.107c-5.292,0-10.46,0.535-15.453,1.549c35.266,7.159,61.811,38.336,61.811,75.715   c0,37.379-26.545,68.556-61.811,75.715c4.993,1.014,10.16,1.549,15.453,1.549c42.672,0,77.264-34.592,77.264-77.264   S477.408,123.107,434.736,123.107z"/>
	<circle style="fill:#F57C7C;" cx="77.264" cy="190.068" r="77.264"/>
	<path style="fill:#EF6161;" d="M77.264,112.805c-5.292,0-10.46,0.535-15.453,1.549c35.266,7.159,61.811,38.336,61.811,75.715   c0,37.379-26.545,68.556-61.811,75.715c4.993,1.014,10.16,1.549,15.453,1.549c42.672,0,77.264-34.592,77.264-77.264   S119.935,112.805,77.264,112.805z"/>
	<circle style="fill:#F57C7C;" cx="112.805" cy="418.19" r="77.264"/>
	<path style="fill:#EF6161;" d="M112.805,340.926c-5.292,0-10.46,0.535-15.453,1.549c35.266,7.159,61.811,38.336,61.811,75.715   c0,37.379-26.545,68.556-61.811,75.715c4.993,1.014,10.16,1.548,15.453,1.548c42.672,0,77.264-34.592,77.264-77.264   S155.476,340.926,112.805,340.926z"/>
	<circle style="fill:#F57C7C;" cx="413.618" cy="434.736" r="77.264"/>
	<path style="fill:#EF6161;" d="M413.618,357.473c-5.292,0-10.46,0.535-15.453,1.548c35.266,7.159,61.811,38.336,61.811,75.715   s-26.545,68.556-61.811,75.715c4.993,1.014,10.16,1.548,15.453,1.548c42.672,0,77.264-34.592,77.264-77.264   S456.289,357.473,413.618,357.473z"/>
	<circle style="fill:#F57C7C;" cx="261.151" cy="281.512" r="77.264"/>
	<path style="fill:#EF6161;" d="M261.151,204.249c-5.292,0-10.46,0.535-15.453,1.549c35.266,7.159,61.811,38.336,61.811,75.715   s-26.545,68.556-61.811,75.715c4.993,1.014,10.16,1.549,15.453,1.549c42.672,0,77.264-34.592,77.264-77.264   C338.414,238.841,303.822,204.249,261.151,204.249z"/>
	<g>
		<path style="fill:#FAB2B2;" d="M237.113,98.944c4.142,0,7.5-3.357,7.5-7.5v-3.863c0-4.143-3.358-7.5-7.5-7.5s-7.5,3.357-7.5,7.5    v3.863C229.613,95.587,232.971,98.944,237.113,98.944z"/>
		<path style="fill:#FAB2B2;" d="M259.926,43.119l3.444-1.749c3.693-1.876,5.167-6.39,3.292-10.083    c-1.876-3.694-6.39-5.168-10.083-3.292l-3.444,1.749c-3.693,1.876-5.167,6.39-3.292,10.083c1.323,2.605,3.958,4.106,6.693,4.106    C257.679,43.934,258.838,43.672,259.926,43.119z"/>
		<path style="fill:#FAB2B2;" d="M272.851,113.215c-3.129-2.716-7.866-2.381-10.581,0.747s-2.381,7.865,0.747,10.581l2.917,2.532    c1.42,1.232,3.171,1.836,4.914,1.836c2.098,0,4.184-0.875,5.667-2.583c2.715-3.128,2.381-7.865-0.747-10.581L272.851,113.215z"/>
		<path style="fill:#FAB2B2;" d="M311.909,61.147c-3.938-1.291-8.174,0.851-9.466,4.786l-1.205,3.67    c-1.292,3.936,0.851,8.173,4.786,9.466c0.777,0.255,1.565,0.376,2.341,0.376c3.153,0,6.088-2.004,7.125-5.162l1.205-3.67    C317.987,66.678,315.845,62.44,311.909,61.147z"/>
		<path style="fill:#FAB2B2;" d="M266.47,71.394l0.695,3.8c0.662,3.618,3.817,6.151,7.369,6.151c0.448,0,0.902-0.04,1.358-0.123    c4.075-0.746,6.773-4.653,6.028-8.728l-0.695-3.8c-0.746-4.075-4.657-6.771-8.728-6.028    C268.423,63.412,265.725,67.319,266.47,71.394z"/>
		<path style="fill:#FAB2B2;" d="M409.957,214.551v-3.863c0-4.143-3.357-7.5-7.5-7.5s-7.5,3.357-7.5,7.5v3.863    c0,4.143,3.357,7.5,7.5,7.5S409.957,218.693,409.957,214.551z"/>
		<path style="fill:#FAB2B2;" d="M432.007,154.395c-1.874-3.694-6.388-5.168-10.082-3.293l-3.445,1.749    c-3.694,1.875-5.168,6.389-3.293,10.082c1.322,2.606,3.958,4.107,6.693,4.107c1.142,0,2.302-0.262,3.389-0.814l3.445-1.749    C432.408,162.602,433.882,158.088,432.007,154.395z"/>
		<path style="fill:#FAB2B2;" d="M428.361,247.649l2.917,2.532c1.42,1.232,3.171,1.836,4.914,1.836c2.098,0,4.184-0.875,5.667-2.583    c2.715-3.128,2.381-7.865-0.747-10.581l-2.917-2.532c-3.129-2.717-7.866-2.381-10.581,0.747S425.233,244.934,428.361,247.649z"/>
		<path style="fill:#FAB2B2;" d="M477.252,184.254c-3.933-1.291-8.173,0.852-9.465,4.787l-1.205,3.671    c-1.292,3.936,0.852,8.173,4.787,9.465c0.776,0.255,1.564,0.376,2.34,0.376c3.153,0,6.088-2.004,7.125-5.163l1.205-3.671    C483.331,189.783,481.188,185.546,477.252,184.254z"/>
		<path style="fill:#FAB2B2;" d="M431.814,194.5l0.695,3.8c0.662,3.618,3.817,6.151,7.369,6.151c0.448,0,0.902-0.04,1.358-0.123    c4.075-0.746,6.773-4.653,6.028-8.728l-0.695-3.8c-0.745-4.074-4.659-6.766-8.728-6.028    C433.768,186.519,431.069,190.426,431.814,194.5z"/>
		<path style="fill:#FAB2B2;" d="M44.984,192.886c-4.142,0-7.5,3.357-7.5,7.5v3.863c0,4.143,3.358,7.5,7.5,7.5s7.5-3.357,7.5-7.5    v-3.863C52.484,196.243,49.126,192.886,44.984,192.886z"/>
		<path style="fill:#FAB2B2;" d="M74.534,144.092c-1.875-3.694-6.391-5.169-10.083-3.292l-3.445,1.749    c-3.693,1.875-5.167,6.39-3.292,10.083c1.323,2.605,3.958,4.106,6.693,4.106c1.142,0,2.302-0.262,3.39-0.814l3.445-1.749    C74.935,152.3,76.409,147.785,74.534,144.092z"/>
		<path style="fill:#FAB2B2;" d="M78.719,241.716c2.098,0,4.184-0.875,5.667-2.583c2.715-3.128,2.381-7.865-0.747-10.581    l-2.917-2.532c-3.129-2.717-7.866-2.381-10.58,0.747c-2.715,3.128-2.381,7.865,0.747,10.581l2.917,2.532    C75.225,241.112,76.976,241.716,78.719,241.716z"/>
		<path style="fill:#FAB2B2;" d="M113.897,191.875c0.776,0.255,1.564,0.376,2.34,0.376c3.153,0,6.088-2.005,7.125-5.163l1.205-3.671    c1.292-3.937-0.852-8.174-4.788-9.465c-3.933-1.292-8.173,0.852-9.464,4.787l-1.205,3.671    C107.818,186.347,109.962,190.584,113.897,191.875z"/>
		<path style="fill:#FAB2B2;" d="M89.097,181.499c-0.746-4.074-4.653-6.771-8.728-6.028c-4.074,0.746-6.773,4.653-6.027,8.728    l0.695,3.8c0.662,3.618,3.817,6.151,7.369,6.151c0.448,0,0.902-0.04,1.359-0.123c4.074-0.746,6.773-4.653,6.027-8.728    L89.097,181.499z"/>
		<path style="fill:#FAB2B2;" d="M80.526,421.007c-4.142,0-7.5,3.357-7.5,7.5v3.863c0,4.143,3.358,7.5,7.5,7.5s7.5-3.357,7.5-7.5    v-3.863C88.026,424.364,84.668,421.007,80.526,421.007z"/>
		<path style="fill:#FAB2B2;" d="M110.074,372.214c-1.875-3.694-6.39-5.17-10.083-3.292l-3.445,1.749    c-3.693,1.876-5.167,6.39-3.291,10.083c1.323,2.605,3.958,4.106,6.693,4.106c1.142,0,2.302-0.262,3.39-0.814l3.445-1.749    C110.476,380.421,111.95,375.907,110.074,372.214z"/>
		<path style="fill:#FAB2B2;" d="M119.181,456.675l-2.917-2.533c-3.127-2.715-7.864-2.38-10.58,0.745    c-2.716,3.128-2.382,7.864,0.745,10.581l2.917,2.533c1.419,1.232,3.171,1.837,4.914,1.837c2.097,0,4.183-0.875,5.666-2.582    C122.642,464.128,122.308,459.392,119.181,456.675z"/>
		<path style="fill:#FAB2B2;" d="M155.321,402.073c-3.936-1.292-8.173,0.851-9.465,4.787l-1.205,3.671    c-1.292,3.936,0.851,8.173,4.787,9.465c0.777,0.255,1.565,0.376,2.341,0.376c3.153,0,6.087-2.004,7.125-5.163l1.205-3.671    C161.4,407.603,159.257,403.365,155.321,402.073z"/>
		<path style="fill:#FAB2B2;" d="M124.638,409.62c-0.746-4.074-4.652-6.764-8.728-6.028c-4.074,0.746-6.773,4.653-6.027,8.728    l0.695,3.8c0.662,3.618,3.817,6.151,7.369,6.151c0.448,0,0.902-0.04,1.359-0.123c4.074-0.746,6.773-4.653,6.027-8.728    L124.638,409.62z"/>
		<path style="fill:#FAB2B2;" d="M397.592,458.262c-2.093-3.573-6.686-4.777-10.262-2.682c-3.574,2.093-4.775,6.687-2.682,10.262    l1.952,3.334c1.396,2.383,3.902,3.711,6.479,3.711c1.287,0,2.592-0.331,3.783-1.029c3.574-2.093,4.775-6.687,2.682-10.262    L397.592,458.262z"/>
		<path style="fill:#FAB2B2;" d="M388.343,412.156l2.089-3.25c2.239-3.484,1.23-8.124-2.255-10.364    c-3.484-2.24-8.125-1.229-10.364,2.255l-2.089,3.25c-2.239,3.484-1.23,8.124,2.255,10.364c1.255,0.807,2.659,1.191,4.048,1.191    C384.493,415.603,386.909,414.386,388.343,412.156z"/>
		<path style="fill:#FAB2B2;" d="M438.71,466.828l-3.798-0.712c-4.065-0.755-7.99,1.918-8.754,5.99    c-0.763,4.071,1.919,7.99,5.99,8.754l3.798,0.712c0.467,0.087,0.932,0.129,1.391,0.129c3.538,0,6.688-2.515,7.363-6.119    C445.463,471.511,442.781,467.592,438.71,466.828z"/>
		<path style="fill:#FAB2B2;" d="M451.223,407.198c-0.874-4.048-4.859-6.622-8.914-5.748c-4.049,0.874-6.622,4.865-5.748,8.914    l0.815,3.776c0.759,3.516,3.867,5.919,7.324,5.919c0.523,0,1.057-0.056,1.59-0.171c4.049-0.874,6.622-4.865,5.748-8.914    L451.223,407.198z"/>
		<path style="fill:#FAB2B2;" d="M419.644,423.464c-2.703-3.14-7.439-3.493-10.577-0.79c-3.139,2.702-3.493,7.438-0.79,10.577    l2.521,2.928c1.483,1.723,3.579,2.606,5.687,2.606c1.733,0,3.475-0.597,4.891-1.816c3.139-2.702,3.493-7.438,0.79-10.577    L419.644,423.464z"/>
		<path style="fill:#FAB2B2;" d="M246.395,306.094c-2.284-3.457-6.938-4.405-10.392-2.121c-3.456,2.284-4.405,6.938-2.121,10.393    l2.13,3.223c1.442,2.183,3.83,3.365,6.263,3.365c1.42,0,2.856-0.402,4.129-1.244c3.456-2.284,4.405-6.938,2.121-10.393    L246.395,306.094z"/>
		<path style="fill:#FAB2B2;" d="M234.646,260.56l1.909-3.359c2.046-3.602,0.786-8.18-2.816-10.226    c-3.602-2.047-8.18-0.787-10.226,2.815l-1.909,3.359c-2.046,3.602-0.786,8.18,2.816,10.226c1.17,0.665,2.442,0.98,3.698,0.98    C230.728,264.355,233.264,262.991,234.646,260.56z"/>
		<path style="fill:#FAB2B2;" d="M287.918,312.406l-3.83-0.504c-4.104-0.54-7.875,2.35-8.414,6.457    c-0.541,4.107,2.351,7.874,6.457,8.414l3.83,0.504c0.332,0.044,0.662,0.065,0.988,0.065c3.706,0,6.93-2.748,7.426-6.522    C294.916,316.713,292.024,312.946,287.918,312.406z"/>
		<path style="fill:#FAB2B2;" d="M297.163,252.183c-1.093-3.994-5.21-6.347-9.214-5.255c-3.995,1.094-6.348,5.218-5.255,9.214    l1.02,3.727c0.912,3.333,3.934,5.522,7.23,5.522c0.654,0,1.32-0.087,1.983-0.268c3.995-1.094,6.348-5.218,5.255-9.214    L297.163,252.183z"/>
		<path style="fill:#FAB2B2;" d="M266.518,270.146c-2.869-2.986-7.616-3.083-10.604-0.214c-2.987,2.869-3.083,7.617-0.214,10.604    l2.676,2.786c1.473,1.533,3.439,2.305,5.41,2.305c1.868,0,3.74-0.694,5.194-2.091c2.987-2.869,3.083-7.617,0.214-10.604    L266.518,270.146z"/>
	</g>
</g>















</svg>
